<mxfile host="65bd71144e">
    <diagram id="osjvPppNyLrmpEX8UjQP" name="Page-1">
        <mxGraphModel dx="746" dy="568" grid="1" gridSize="10" guides="1" tooltips="1" connect="1" arrows="1" fold="1" page="1" pageScale="1" pageWidth="827" pageHeight="1169" math="0" shadow="0">
            <root>
                <mxCell id="0"/>
                <mxCell id="1" parent="0"/>
                <mxCell id="2" value="&lt;p style=&quot;margin:0px;margin-top:4px;text-align:center;&quot;&gt;&lt;b style=&quot;background-color: initial;&quot;&gt;F1:&lt;/b&gt;&lt;br&gt;&lt;/p&gt;&lt;hr&gt;&lt;p style=&quot;margin: 0px 0px 0px 8px;&quot;&gt;Color: Gris oscuro&lt;br&gt;Forma: Cicular&lt;/p&gt;&lt;p style=&quot;margin: 0px 0px 0px 8px;&quot;&gt;Diámetro: 2 cm&lt;/p&gt;" style="verticalAlign=top;align=left;overflow=fill;fontSize=12;fontFamily=Helvetica;html=1;" vertex="1" parent="1">
                    <mxGeometry x="50" y="400" width="140" height="80" as="geometry"/>
                </mxCell>
                <mxCell id="3" value="&lt;p style=&quot;margin:0px;margin-top:4px;text-align:center;&quot;&gt;&lt;b style=&quot;background-color: initial;&quot;&gt;F2:&lt;/b&gt;&lt;br&gt;&lt;/p&gt;&lt;hr&gt;&lt;p style=&quot;margin: 0px 0px 0px 8px;&quot;&gt;Color: Naranja&lt;br&gt;Forma: Rectangular&lt;/p&gt;&lt;p style=&quot;margin: 0px 0px 0px 8px;&quot;&gt;Base: 5 cm&lt;/p&gt;&lt;p style=&quot;margin: 0px 0px 0px 8px;&quot;&gt;Altura: 2cm&lt;/p&gt;&lt;p style=&quot;margin: 0px 0px 0px 8px;&quot;&gt;&lt;br&gt;&lt;/p&gt;&lt;p style=&quot;margin: 0px 0px 0px 8px;&quot;&gt;&lt;br&gt;&lt;/p&gt;" style="verticalAlign=top;align=left;overflow=fill;fontSize=12;fontFamily=Helvetica;html=1;" vertex="1" parent="1">
                    <mxGeometry x="230" y="400" width="150" height="100" as="geometry"/>
                </mxCell>
                <mxCell id="4" value="&lt;p style=&quot;margin:0px;margin-top:4px;text-align:center;&quot;&gt;&lt;b style=&quot;background-color: initial;&quot;&gt;F3:&lt;/b&gt;&lt;br&gt;&lt;/p&gt;&lt;hr&gt;&lt;p style=&quot;margin: 0px 0px 0px 8px;&quot;&gt;Color: Azul&lt;br&gt;Forma: Cuadrangular&lt;/p&gt;&lt;p style=&quot;margin: 0px 0px 0px 8px;&quot;&gt;Diámetro: 2 cm&lt;/p&gt;" style="verticalAlign=top;align=left;overflow=fill;fontSize=12;fontFamily=Helvetica;html=1;" vertex="1" parent="1">
                    <mxGeometry x="420" y="400" width="140" height="80" as="geometry"/>
                </mxCell>
                <mxCell id="5" value="&lt;p style=&quot;margin:0px;margin-top:4px;text-align:center;&quot;&gt;&lt;b style=&quot;background-color: initial;&quot;&gt;F4:&lt;/b&gt;&lt;br&gt;&lt;/p&gt;&lt;hr&gt;&lt;p style=&quot;margin: 0px 0px 0px 8px;&quot;&gt;Color: Amarillo&lt;br&gt;Forma: Oval&lt;/p&gt;&lt;p style=&quot;margin: 0px 0px 0px 8px;&quot;&gt;Eje mayor: 2cm&lt;/p&gt;&lt;p style=&quot;margin: 0px 0px 0px 8px;&quot;&gt;Eje menor: 5cm&lt;/p&gt;&lt;p style=&quot;margin: 0px 0px 0px 8px;&quot;&gt;&lt;br&gt;&lt;/p&gt;&lt;p style=&quot;margin: 0px 0px 0px 8px;&quot;&gt;&lt;br&gt;&lt;/p&gt;" style="verticalAlign=top;align=left;overflow=fill;fontSize=12;fontFamily=Helvetica;html=1;" vertex="1" parent="1">
                    <mxGeometry x="600" y="400" width="150" height="100" as="geometry"/>
                </mxCell>
            </root>
        </mxGraphModel>
    </diagram>
</mxfile>